<svg width="62" height="78" viewBox="0 0 62 78" fill="none" xmlns="http://www.w3.org/2000/svg">
<g clip-path="url(#clip0_28343_85803)">
<g filter="url(#filter0_f_28343_85803)">
<path d="M42.7621 73.4918C42.9526 73.1523 43.0327 72.762 42.9913 72.375C42.9499 71.988 42.7891 71.6235 42.5312 71.332C27.2979 54.356 15.3032 34.7331 7.14079 13.4349C6.96083 12.9704 6.60371 12.5964 6.148 12.3952C5.69229 12.194 5.17531 12.182 4.71079 12.362C4.24627 12.5419 3.87226 12.8991 3.67105 13.3548C3.46984 13.8105 3.45789 14.3275 3.63785 14.792C11.9525 36.5184 24.1827 56.5351 39.7212 73.8478C39.8836 74.0355 40.0818 74.1891 40.3041 74.2997C40.5265 74.4102 40.7686 74.4755 41.0163 74.4917C41.2641 74.508 41.5126 74.4748 41.7475 74.3942C41.9823 74.3136 42.1988 74.1872 42.3844 74.0222C42.5403 73.8688 42.6681 73.6893 42.7621 73.4918Z" fill="url(#paint0_linear_28343_85803)"/>
</g>
<path style="mix-blend-mode:overlay" d="M42.7621 73.4918C42.9526 73.1523 43.0327 72.762 42.9913 72.375C42.9499 71.988 42.7891 71.6235 42.5312 71.332C27.2979 54.356 15.3032 34.7331 7.14079 13.4349C6.96083 12.9704 6.60371 12.5964 6.148 12.3952C5.69229 12.194 5.17531 12.182 4.71079 12.362C4.24627 12.5419 3.87226 12.8991 3.67105 13.3548C3.46984 13.8105 3.45789 14.3275 3.63785 14.792C11.9525 36.5184 24.1827 56.5351 39.7212 73.8478C39.8836 74.0355 40.0818 74.1891 40.3041 74.2997C40.5265 74.4102 40.7686 74.4755 41.0163 74.4917C41.2641 74.508 41.5126 74.4748 41.7475 74.3942C41.9823 74.3136 42.1988 74.1872 42.3844 74.0222C42.5403 73.8688 42.6681 73.6893 42.7621 73.4918Z" fill="url(#paint1_linear_28343_85803)"/>
<g style="mix-blend-mode:overlay">
<path style="mix-blend-mode:overlay" d="M42.7621 73.4918C42.9526 73.1523 43.0327 72.762 42.9913 72.375C42.9499 71.988 42.7891 71.6235 42.5312 71.332C27.2979 54.356 15.3032 34.7331 7.14079 13.4349C6.96083 12.9704 6.60371 12.5964 6.148 12.3952C5.69229 12.194 5.17531 12.182 4.71079 12.362C4.24627 12.5419 3.87226 12.8991 3.67105 13.3548C3.46984 13.8105 3.45789 14.3275 3.63785 14.792C11.9525 36.5184 24.1827 56.5351 39.7212 73.8478C39.8836 74.0355 40.0818 74.1891 40.3041 74.2997C40.5265 74.4102 40.7686 74.4755 41.0163 74.4917C41.2641 74.508 41.5126 74.4748 41.7475 74.3942C41.9823 74.3136 42.1988 74.1872 42.3844 74.0222C42.5403 73.8688 42.6681 73.6893 42.7621 73.4918Z" fill="url(#paint2_linear_28343_85803)"/>
</g>
<g filter="url(#filter1_d_28343_85803)">
<path fill-rule="evenodd" clip-rule="evenodd" d="M53.8884 34.9432H34.3134V31.2573H53.8884V34.9432Z" fill="url(#paint3_linear_28343_85803)"/>
<path d="M36.0518 33.0965L44.3806 24.6435L41.8166 22.0413L30.9263 33.099L41.8178 44.153L44.3818 41.5508L36.0518 33.0965Z" fill="url(#paint4_linear_28343_85803)"/>
</g>
</g>
<defs>
<filter id="filter0_f_28343_85803" x="0.698486" y="9.42264" width="45.1159" height="67.8856" filterUnits="userSpaceOnUse" color-interpolation-filters="sRGB">
<feFlood flood-opacity="0" result="BackgroundImageFix"/>
<feBlend mode="normal" in="SourceGraphic" in2="BackgroundImageFix" result="shape"/>
<feGaussianBlur stdDeviation="1.40625" result="effect1_foregroundBlur_28343_85803"/>
</filter>
<filter id="filter1_d_28343_85803" x="28.9263" y="22.0413" width="26.9622" height="26.1117" filterUnits="userSpaceOnUse" color-interpolation-filters="sRGB">
<feFlood flood-opacity="0" result="BackgroundImageFix"/>
<feColorMatrix in="SourceAlpha" type="matrix" values="0 0 0 0 0 0 0 0 0 0 0 0 0 0 0 0 0 0 127 0" result="hardAlpha"/>
<feOffset dy="2"/>
<feGaussianBlur stdDeviation="1"/>
<feComposite in2="hardAlpha" operator="out"/>
<feColorMatrix type="matrix" values="0 0 0 0 0 0 0 0 0 0 0 0 0 0 0 0 0 0 0.75 0"/>
<feBlend mode="normal" in2="BackgroundImageFix" result="effect1_dropShadow_28343_85803"/>
<feBlend mode="normal" in="SourceGraphic" in2="effect1_dropShadow_28343_85803" result="shape"/>
</filter>
<linearGradient id="paint0_linear_28343_85803" x1="40.9733" y1="74.9261" x2="3.00101" y2="13.3799" gradientUnits="userSpaceOnUse">
<stop offset="0" stop-opacity="0"/>
<stop offset="0.21875"/>
<stop offset="0.786458"/>
<stop offset="1" stop-opacity="0"/>
</linearGradient>
<linearGradient id="paint1_linear_28343_85803" x1="4.34721" y1="12.5493" x2="40.974" y2="74.9256" gradientUnits="userSpaceOnUse">
<stop offset="0" stop-color="#B2B2B2" stop-opacity="0"/>
<stop offset="0.411458" stop-color="white"/>
<stop offset="0.588542" stop-color="white"/>
<stop offset="1" stop-color="#B2B2B2" stop-opacity="0"/>
</linearGradient>
<linearGradient id="paint2_linear_28343_85803" x1="4.10851" y1="12.6966" x2="40.974" y2="74.9256" gradientUnits="userSpaceOnUse">
<stop offset="0.0625" stop-color="#B2B2B2" stop-opacity="0"/>
<stop offset="0.5" stop-color="white"/>
<stop offset="0.9375" stop-color="#B2B2B2" stop-opacity="0"/>
</linearGradient>
<linearGradient id="paint3_linear_28343_85803" x1="42.4073" y1="22.0413" x2="42.4073" y2="44.153" gradientUnits="userSpaceOnUse">
<stop offset="0" stop-color="white"/>
<stop offset="1" stop-color="#A1B1BF"/>
</linearGradient>
<linearGradient id="paint4_linear_28343_85803" x1="42.4073" y1="22.0413" x2="42.4073" y2="44.153" gradientUnits="userSpaceOnUse">
<stop offset="0" stop-color="white"/>
<stop offset="1" stop-color="#A1B1BF"/>
</linearGradient>
<clipPath id="clip0_28343_85803">
<rect width="62" height="78" fill="white"/>
</clipPath>
</defs>
</svg>
