<svg width="32" height="78" viewBox="0 0 32 78" fill="none" xmlns="http://www.w3.org/2000/svg">
<g clip-path="url(#clip0_28343_85681)">
<g filter="url(#filter0_f_28343_85681)">
<path d="M9.4263 3.28136C9.7666 3.47025 10.0397 3.76037 10.2077 4.11146C10.3757 4.46256 10.4302 4.85723 10.3638 5.24073C6.31316 27.6869 6.40848 50.6852 10.645 73.097C10.7358 73.5868 10.6283 74.0926 10.3461 74.5031C10.0639 74.9137 9.63018 75.1953 9.14036 75.286C8.65054 75.3768 8.14473 75.2693 7.7342 74.9871C7.32367 74.7049 7.04205 74.2712 6.9513 73.7814C2.61946 50.9251 2.51777 27.468 6.6513 4.57511C6.69101 4.33 6.77901 4.09523 6.91019 3.88442C7.04137 3.6736 7.21311 3.49094 7.41546 3.34703C7.6178 3.20312 7.84671 3.10084 8.0889 3.04611C8.33109 2.99138 8.58174 2.98531 8.8263 3.02823C9.03953 3.07696 9.24259 3.16263 9.4263 3.28136Z" fill="url(#paint0_linear_28343_85681)"/>
</g>
<path style="mix-blend-mode:overlay" d="M9.4263 3.28136C9.7666 3.47025 10.0397 3.76037 10.2077 4.11146C10.3757 4.46256 10.4302 4.85723 10.3638 5.24073C6.31316 27.6869 6.40848 50.6852 10.645 73.097C10.7358 73.5868 10.6283 74.0926 10.3461 74.5031C10.0639 74.9137 9.63018 75.1953 9.14036 75.286C8.65054 75.3768 8.14473 75.2693 7.7342 74.9871C7.32367 74.7049 7.04205 74.2712 6.9513 73.7814C2.61946 50.9251 2.51777 27.468 6.6513 4.57511C6.69101 4.33 6.77901 4.09523 6.91019 3.88442C7.04137 3.6736 7.21311 3.49094 7.41546 3.34703C7.6178 3.20312 7.84671 3.10084 8.0889 3.04611C8.33109 2.99138 8.58174 2.98531 8.8263 3.02823C9.03953 3.07696 9.24259 3.16263 9.4263 3.28136Z" fill="url(#paint1_linear_28343_85681)"/>
<g style="mix-blend-mode:overlay">
<path style="mix-blend-mode:overlay" d="M9.4263 3.28136C9.7666 3.47025 10.0397 3.76037 10.2077 4.11146C10.3757 4.46256 10.4302 4.85723 10.3638 5.24073C6.31316 27.6869 6.40848 50.6852 10.645 73.097C10.7358 73.5868 10.6283 74.0926 10.3461 74.5031C10.0639 74.9137 9.63018 75.1953 9.14036 75.286C8.65054 75.3768 8.14473 75.2693 7.7342 74.9871C7.32367 74.7049 7.04205 74.2712 6.9513 73.7814C2.61946 50.9251 2.51777 27.468 6.6513 4.57511C6.69101 4.33 6.77901 4.09523 6.91019 3.88442C7.04137 3.6736 7.21311 3.49094 7.41546 3.34703C7.6178 3.20312 7.84671 3.10084 8.0889 3.04611C8.33109 2.99138 8.58174 2.98531 8.8263 3.02823C9.03953 3.07696 9.24259 3.16263 9.4263 3.28136Z" fill="url(#paint2_linear_28343_85681)"/>
</g>
</g>
<defs>
<filter id="filter0_f_28343_85681" x="0.8125" y="0.1875" width="12.6765" height="77.9425" filterUnits="userSpaceOnUse" color-interpolation-filters="sRGB">
<feFlood flood-opacity="0" result="BackgroundImageFix"/>
<feBlend mode="normal" in="SourceGraphic" in2="BackgroundImageFix" result="shape"/>
<feGaussianBlur stdDeviation="1.40625" result="effect1_foregroundBlur_28343_85681"/>
</filter>
<linearGradient id="paint0_linear_28343_85681" x1="7.15074" y1="3" x2="7.15074" y2="75.3175" gradientUnits="userSpaceOnUse">
<stop offset="0" stop-opacity="0"/>
<stop offset="0.21875"/>
<stop offset="0.786458"/>
<stop offset="1" stop-opacity="0"/>
</linearGradient>
<linearGradient id="paint1_linear_28343_85681" x1="8.73256" y1="75.3175" x2="7.15161" y2="3" gradientUnits="userSpaceOnUse">
<stop offset="0" stop-color="#B2B2B2" stop-opacity="0"/>
<stop offset="0.411458" stop-color="white"/>
<stop offset="0.588542" stop-color="white"/>
<stop offset="1" stop-color="#B2B2B2" stop-opacity="0"/>
</linearGradient>
<linearGradient id="paint2_linear_28343_85681" x1="8.45208" y1="75.3175" x2="7.15161" y2="3" gradientUnits="userSpaceOnUse">
<stop offset="0.0625" stop-color="#B2B2B2" stop-opacity="0"/>
<stop offset="0.5" stop-color="white"/>
<stop offset="0.9375" stop-color="#B2B2B2" stop-opacity="0"/>
</linearGradient>
<clipPath id="clip0_28343_85681">
<rect width="32" height="78" fill="white"/>
</clipPath>
</defs>
</svg>
