<svg width="54" height="54" viewBox="0 0 54 54" fill="none" xmlns="http://www.w3.org/2000/svg">
<g opacity="0.96" clip-path="url(#clip0_28343_85755)">
<g filter="url(#filter0_d_28343_85755)">
<path fill-rule="evenodd" clip-rule="evenodd" d="M50.9632 44.8251L29.2007 6.71353C28.996 6.31786 28.686 5.98597 28.3045 5.75427C27.923 5.52256 27.4848 5.39999 27.038 5.39999C26.5912 5.39999 26.153 5.52256 25.7716 5.75427C25.3901 5.98597 25.08 6.31786 24.8753 6.71353L3.11283 44.8251C2.86031 45.1999 2.71788 45.6376 2.70159 46.0887C2.68529 46.5399 2.79577 46.9866 3.02059 47.3786C3.2454 47.7706 3.57561 48.0922 3.97402 48.3073C4.37243 48.5223 4.82321 48.6223 5.27556 48.5958H48.8005L50.017 48.3265C50.3058 48.1721 50.5603 47.9613 50.7653 47.7065C50.9703 47.4517 51.1215 47.1583 51.2099 46.8439C51.2983 46.5295 51.322 46.2005 51.2796 45.8767C51.2372 45.553 51.1296 45.2411 50.9632 44.9597V44.8251ZM29.7414 43.209H24.3346V37.8222H29.7414V43.209ZM29.7414 33.7822H24.3346V20.3152H29.7414V33.7822Z" fill="url(#paint0_linear_28343_85755)"/>
</g>
</g>
<defs>
<filter id="filter0_d_28343_85755" x="0.900012" y="5.39999" width="52.2" height="46.8" filterUnits="userSpaceOnUse" color-interpolation-filters="sRGB">
<feFlood flood-opacity="0" result="BackgroundImageFix"/>
<feColorMatrix in="SourceAlpha" type="matrix" values="0 0 0 0 0 0 0 0 0 0 0 0 0 0 0 0 0 0 127 0" result="hardAlpha"/>
<feOffset dy="1.8"/>
<feGaussianBlur stdDeviation="0.9"/>
<feComposite in2="hardAlpha" operator="out"/>
<feColorMatrix type="matrix" values="0 0 0 0 0 0 0 0 0 0 0 0 0 0 0 0 0 0 0.75 0"/>
<feBlend mode="normal" in2="BackgroundImageFix" result="effect1_dropShadow_28343_85755"/>
<feBlend mode="normal" in="SourceGraphic" in2="effect1_dropShadow_28343_85755" result="shape"/>
</filter>
<linearGradient id="paint0_linear_28343_85755" x1="27" y1="5.39999" x2="27" y2="48.6" gradientUnits="userSpaceOnUse">
<stop offset="0" stop-color="#FD004C"/>
<stop offset="1" stop-color="#AB0000"/>
</linearGradient>
<clipPath id="clip0_28343_85755">
<rect width="54" height="54" fill="white"/>
</clipPath>
</defs>
</svg>
