<svg width="54" height="54" viewBox="0 0 54 54" fill="none" xmlns="http://www.w3.org/2000/svg">
<g opacity="0.96" clip-path="url(#clip0_28343_85728)">
<g filter="url(#filter0_d_28343_85728)">
<path fill-rule="evenodd" clip-rule="evenodd" d="M14.985 49.95H39.015L41.85 17.55H12.15L14.985 49.95ZM37.8 10.8V8.09999C37.8 7.02586 37.3733 5.99573 36.6138 5.23621C35.8543 4.47668 34.8241 4.04999 33.75 4.04999H20.25C19.1759 4.04999 18.1457 4.47668 17.3862 5.23621C16.6267 5.99573 16.2 7.02586 16.2 8.09999V10.8H8.10001V14.85H45.9V10.8H37.8ZM33.75 10.8H20.25V9.44999C20.25 9.09195 20.3922 8.74857 20.6454 8.49539C20.8986 8.24222 21.242 8.09999 21.6 8.09999H32.4C32.758 8.09999 33.1014 8.24222 33.3546 8.49539C33.6078 8.74857 33.75 9.09195 33.75 9.44999V10.8Z" fill="url(#paint0_linear_28343_85728)"/>
</g>
</g>
<defs>
<filter id="filter0_d_28343_85728" x="6.30001" y="4.04999" width="41.4" height="49.5" filterUnits="userSpaceOnUse" color-interpolation-filters="sRGB">
<feFlood flood-opacity="0" result="BackgroundImageFix"/>
<feColorMatrix in="SourceAlpha" type="matrix" values="0 0 0 0 0 0 0 0 0 0 0 0 0 0 0 0 0 0 127 0" result="hardAlpha"/>
<feOffset dy="1.8"/>
<feGaussianBlur stdDeviation="0.9"/>
<feComposite in2="hardAlpha" operator="out"/>
<feColorMatrix type="matrix" values="0 0 0 0 0 0 0 0 0 0 0 0 0 0 0 0 0 0 0.75 0"/>
<feBlend mode="normal" in2="BackgroundImageFix" result="effect1_dropShadow_28343_85728"/>
<feBlend mode="normal" in="SourceGraphic" in2="effect1_dropShadow_28343_85728" result="shape"/>
</filter>
<linearGradient id="paint0_linear_28343_85728" x1="27" y1="4.04999" x2="27" y2="49.95" gradientUnits="userSpaceOnUse">
<stop offset="0" stop-color="#FD004C"/>
<stop offset="1" stop-color="#AB0000"/>
</linearGradient>
<clipPath id="clip0_28343_85728">
<rect width="54" height="54" fill="white"/>
</clipPath>
</defs>
</svg>
