<svg width="45" height="70" viewBox="0 0 45 70" fill="none" xmlns="http://www.w3.org/2000/svg">
<g filter="url(#filter0_f_29025_84772)">
<path d="M41.0421 65.3264C41.2424 64.9926 41.3338 64.6048 41.3038 64.2168C41.2737 63.8287 41.1236 63.4597 40.8743 63.1607C26.1433 45.7471 14.7267 25.7824 7.18979 4.25488C7.02347 3.78531 6.67743 3.40103 6.22779 3.1866C5.77814 2.97216 5.26173 2.94513 4.79216 3.11145C4.32258 3.27776 3.93831 3.6238 3.72387 4.07344C3.50944 4.52308 3.4824 5.0395 3.64872 5.50907C11.3254 27.4691 22.9658 47.8343 37.992 65.5934C38.149 65.7858 38.3426 65.9452 38.5616 66.0622C38.7806 66.1791 39.0207 66.2515 39.2679 66.2749C39.515 66.2984 39.7644 66.2725 40.0015 66.1988C40.2386 66.1251 40.4587 66.005 40.6491 65.8456C40.8094 65.6968 40.9424 65.521 41.0421 65.3264Z" fill="url(#paint0_linear_29025_84772)"/>
</g>
<path style="mix-blend-mode:overlay" d="M41.0421 65.3264C41.2424 64.9926 41.3338 64.6048 41.3038 64.2168C41.2737 63.8287 41.1236 63.4597 40.8743 63.1607C26.1433 45.7471 14.7267 25.7824 7.18979 4.25488C7.02347 3.78531 6.67743 3.40103 6.22779 3.1866C5.77814 2.97216 5.26173 2.94513 4.79216 3.11145C4.32258 3.27776 3.93831 3.6238 3.72387 4.07344C3.50944 4.52308 3.4824 5.0395 3.64872 5.50907C11.3254 27.4691 22.9658 47.8343 37.992 65.5934C38.149 65.7858 38.3426 65.9452 38.5616 66.0622C38.7806 66.1791 39.0207 66.2515 39.2679 66.2749C39.515 66.2984 39.7644 66.2725 40.0015 66.1988C40.2386 66.1251 40.4587 66.005 40.6491 65.8456C40.8094 65.6968 40.9424 65.521 41.0421 65.3264Z" fill="url(#paint1_linear_29025_84772)"/>
<g style="mix-blend-mode:overlay">
<path style="mix-blend-mode:overlay" d="M41.0421 65.3264C41.2424 64.9926 41.3338 64.6048 41.3038 64.2168C41.2737 63.8287 41.1236 63.4597 40.8743 63.1607C26.1433 45.7471 14.7267 25.7824 7.18979 4.25488C7.02347 3.78531 6.67743 3.40103 6.22779 3.1866C5.77814 2.97216 5.26173 2.94513 4.79216 3.11145C4.32258 3.27776 3.93831 3.6238 3.72387 4.07344C3.50944 4.52308 3.4824 5.0395 3.64872 5.50907C11.3254 27.4691 22.9658 47.8343 37.992 65.5934C38.149 65.7858 38.3426 65.9452 38.5616 66.0622C38.7806 66.1791 39.0207 66.2515 39.2679 66.2749C39.515 66.2984 39.7644 66.2725 40.0015 66.1988C40.2386 66.1251 40.4587 66.005 40.6491 65.8456C40.8094 65.6968 40.9424 65.521 41.0421 65.3264Z" fill="url(#paint2_linear_29025_84772)"/>
</g>
<defs>
<filter id="filter0_f_29025_84772" x="0.728447" y="0.191162" width="43.3934" height="68.9046" filterUnits="userSpaceOnUse" color-interpolation-filters="sRGB">
<feFlood flood-opacity="0" result="BackgroundImageFix"/>
<feBlend mode="normal" in="SourceGraphic" in2="BackgroundImageFix" result="shape"/>
<feGaussianBlur stdDeviation="1.40625" result="effect1_foregroundBlur_29025_84772"/>
</filter>
<linearGradient id="paint0_linear_29025_84772" x1="39.2121" y1="66.7078" x2="3.05338" y2="4.07902" gradientUnits="userSpaceOnUse">
<stop offset="0" stop-opacity="0"/>
<stop offset="0.21875"/>
<stop offset="0.786458"/>
<stop offset="1" stop-opacity="0"/>
</linearGradient>
<linearGradient id="paint1_linear_29025_84772" x1="4.42326" y1="3.2881" x2="39.2129" y2="66.7074" gradientUnits="userSpaceOnUse">
<stop offset="0" stop-color="#B2B2B2" stop-opacity="0"/>
<stop offset="0.411458" stop-color="red"/>
<stop offset="0.588542" stop-color="red"/>
<stop offset="1" stop-color="#B2B2B2" stop-opacity="0"/>
</linearGradient>
<linearGradient id="paint2_linear_29025_84772" x1="4.18036" y1="3.42834" x2="39.2129" y2="66.7074" gradientUnits="userSpaceOnUse">
<stop offset="0.0625" stop-color="#B2B2B2" stop-opacity="0"/>
<stop offset="0.5" stop-color="red"/>
<stop offset="0.9375" stop-color="#B2B2B2" stop-opacity="0"/>
</linearGradient>
</defs>
</svg>
