<svg width="62" height="78" viewBox="0 0 62 78" fill="none" xmlns="http://www.w3.org/2000/svg">
<g clip-path="url(#clip0_28343_85673)">
<g filter="url(#filter0_f_28343_85673)">
<path d="M20.2299 74.3264C20.0296 73.9927 19.9382 73.6049 19.9683 73.2168C19.9983 72.8288 20.1484 72.4597 20.3977 72.1608C35.1287 54.7472 46.5453 34.7824 54.0822 13.2549C54.2485 12.7853 54.5946 12.4011 55.0442 12.1866C55.4939 11.9722 56.0103 11.9452 56.4799 12.1115C56.9494 12.2778 57.3337 12.6238 57.5481 13.0735C57.7626 13.5231 57.7896 14.0395 57.6233 14.5091C49.9467 36.4691 38.3062 56.8344 23.28 74.5935C23.123 74.7859 22.9294 74.9452 22.7104 75.0622C22.4914 75.1792 22.2514 75.2515 22.0042 75.2749C21.757 75.2984 21.5076 75.2725 21.2705 75.1988C21.0334 75.1251 20.8133 75.0051 20.6229 74.8456C20.4626 74.6968 20.3296 74.5211 20.2299 74.3264Z" fill="url(#paint0_linear_28343_85673)"/>
</g>
<path style="mix-blend-mode:overlay" d="M20.2299 74.3264C20.0296 73.9927 19.9382 73.6049 19.9683 73.2168C19.9983 72.8288 20.1484 72.4597 20.3977 72.1608C35.1287 54.7472 46.5453 34.7824 54.0822 13.2549C54.2485 12.7853 54.5946 12.4011 55.0442 12.1866C55.4939 11.9722 56.0103 11.9452 56.4799 12.1115C56.9494 12.2778 57.3337 12.6238 57.5481 13.0735C57.7626 13.5231 57.7896 14.0395 57.6233 14.5091C49.9467 36.4691 38.3062 56.8344 23.28 74.5935C23.123 74.7859 22.9294 74.9452 22.7104 75.0622C22.4914 75.1792 22.2514 75.2515 22.0042 75.2749C21.757 75.2984 21.5076 75.2725 21.2705 75.1988C21.0334 75.1251 20.8133 75.0051 20.6229 74.8456C20.4626 74.6968 20.3296 74.5211 20.2299 74.3264Z" fill="url(#paint1_linear_28343_85673)"/>
<g style="mix-blend-mode:overlay">
<path style="mix-blend-mode:overlay" d="M20.2299 74.3264C20.0296 73.9927 19.9382 73.6049 19.9683 73.2168C19.9983 72.8288 20.1484 72.4597 20.3977 72.1608C35.1287 54.7472 46.5453 34.7824 54.0822 13.2549C54.2485 12.7853 54.5946 12.4011 55.0442 12.1866C55.4939 11.9722 56.0103 11.9452 56.4799 12.1115C56.9494 12.2778 57.3337 12.6238 57.5481 13.0735C57.7626 13.5231 57.7896 14.0395 57.6233 14.5091C49.9467 36.4691 38.3062 56.8344 23.28 74.5935C23.123 74.7859 22.9294 74.9452 22.7104 75.0622C22.4914 75.1792 22.2514 75.2515 22.0042 75.2749C21.757 75.2984 21.5076 75.2725 21.2705 75.1988C21.0334 75.1251 20.8133 75.0051 20.6229 74.8456C20.4626 74.6968 20.3296 74.5211 20.2299 74.3264Z" fill="url(#paint2_linear_28343_85673)"/>
</g>
</g>
<defs>
<filter id="filter0_f_28343_85673" x="17.1501" y="9.19119" width="43.3934" height="68.9046" filterUnits="userSpaceOnUse" color-interpolation-filters="sRGB">
<feFlood flood-opacity="0" result="BackgroundImageFix"/>
<feBlend mode="normal" in="SourceGraphic" in2="BackgroundImageFix" result="shape"/>
<feGaussianBlur stdDeviation="1.40625" result="effect1_foregroundBlur_28343_85673"/>
</filter>
<linearGradient id="paint0_linear_28343_85673" x1="22.0599" y1="75.7078" x2="58.2186" y2="13.0791" gradientUnits="userSpaceOnUse">
<stop offset="0" stop-opacity="0"/>
<stop offset="0.21875"/>
<stop offset="0.786458"/>
<stop offset="1" stop-opacity="0"/>
</linearGradient>
<linearGradient id="paint1_linear_28343_85673" x1="56.8488" y1="12.2881" x2="22.0591" y2="75.7074" gradientUnits="userSpaceOnUse">
<stop offset="0" stop-color="#B2B2B2" stop-opacity="0"/>
<stop offset="0.411458" stop-color="white"/>
<stop offset="0.588542" stop-color="white"/>
<stop offset="1" stop-color="#B2B2B2" stop-opacity="0"/>
</linearGradient>
<linearGradient id="paint2_linear_28343_85673" x1="57.0917" y1="12.4284" x2="22.0591" y2="75.7074" gradientUnits="userSpaceOnUse">
<stop offset="0.0625" stop-color="#B2B2B2" stop-opacity="0"/>
<stop offset="0.5" stop-color="white"/>
<stop offset="0.9375" stop-color="#B2B2B2" stop-opacity="0"/>
</linearGradient>
<clipPath id="clip0_28343_85673">
<rect width="62" height="78" fill="white"/>
</clipPath>
</defs>
</svg>
