<svg width="54" height="54" viewBox="0 0 54 54" fill="none" xmlns="http://www.w3.org/2000/svg">
<g opacity="0.96" clip-path="url(#clip0_28343_85763)">
<g filter="url(#filter0_d_28343_85763)">
<path d="M9.76154 26.3935H0L12.1915 38.5851L24.3831 26.3935H14.6215C14.6215 23.5 15.4796 20.6715 17.0871 18.2656C18.6947 15.8598 20.9795 13.9846 23.6528 12.8773C26.326 11.77 29.2676 11.4803 32.1055 12.0448C34.9434 12.6093 37.5502 14.0026 39.5962 16.0487C41.6423 18.0947 43.0356 20.7015 43.6001 23.5394C44.1646 26.3773 43.8749 29.3189 42.7676 31.9921C41.6603 34.6654 39.7852 36.9502 37.3793 38.5578C34.9734 40.1653 32.1449 41.0234 29.2514 41.0234V45.9C33.1101 45.9033 36.8831 44.762 40.0931 42.6206C43.3031 40.4792 45.8059 37.4339 47.2849 33.8698C48.7638 30.3058 49.1525 26.3832 48.4017 22.5982C47.6509 18.8132 45.7944 15.3359 43.067 12.6063C40.3397 9.87657 36.864 8.01711 33.0796 7.2631C29.2953 6.50909 25.3724 6.89441 21.807 8.37032C18.2417 9.84623 15.1943 12.3464 13.0501 15.5546C10.906 18.7628 9.76154 22.5348 9.76154 26.3935Z" fill="url(#paint0_linear_28343_85763)"/>
</g>
</g>
<defs>
<filter id="filter0_d_28343_85763" x="-1.8" y="6.88705" width="52.3745" height="42.6129" filterUnits="userSpaceOnUse" color-interpolation-filters="sRGB">
<feFlood flood-opacity="0" result="BackgroundImageFix"/>
<feColorMatrix in="SourceAlpha" type="matrix" values="0 0 0 0 0 0 0 0 0 0 0 0 0 0 0 0 0 0 127 0" result="hardAlpha"/>
<feOffset dy="1.8"/>
<feGaussianBlur stdDeviation="0.9"/>
<feComposite in2="hardAlpha" operator="out"/>
<feColorMatrix type="matrix" values="0 0 0 0 0 0 0 0 0 0 0 0 0 0 0 0 0 0 0.75 0"/>
<feBlend mode="normal" in2="BackgroundImageFix" result="effect1_dropShadow_28343_85763"/>
<feBlend mode="normal" in="SourceGraphic" in2="effect1_dropShadow_28343_85763" result="shape"/>
</filter>
<linearGradient id="paint0_linear_28343_85763" x1="0" y1="26.3935" x2="48.7745" y2="26.3935" gradientUnits="userSpaceOnUse">
<stop offset="0" stop-color="#B4B4B4"/>
<stop offset="1" stop-color="#4B5965"/>
</linearGradient>
<clipPath id="clip0_28343_85763">
<rect width="54" height="54" fill="white"/>
</clipPath>
</defs>
</svg>
